<svg version="1.1" id="Layer_1" xmlns="http://www.w3.org/2000/svg" xmlns:xlink="http://www.w3.org/1999/xlink" x="0px" y="0px"
	 width="100%" viewBox="0 0 544 544" enable-background="new 0 0 544 544" xml:space="preserve">
<path fill="#000000" opacity="1.000000" stroke="none" 
	d="
M67.629105,303.999878 
	C67.628517,241.867020 67.628517,180.234146 67.628517,118.609642 
	C70.864784,116.578125 73.507980,118.230247 75.645126,119.781265 
	C85.712746,127.087753 95.606583,134.633896 105.549576,142.111633 
	C106.477676,142.809616 107.235878,143.752930 108.207565,144.370590 
	C121.363380,152.733047 132.996857,163.135071 145.608353,172.231384 
	C168.990540,189.096344 191.782623,206.764648 214.822479,224.085449 
	C228.850739,234.631592 243.295471,244.681931 256.750946,256.044403 
	C261.881287,260.376740 268.030853,263.557556 273.094788,268.181702 
	C275.603485,270.472534 278.456360,270.766144 281.548248,268.229492 
	C288.586151,262.455475 295.716644,256.761383 303.132904,251.489761 
	C312.191650,245.050613 320.725891,237.940735 329.783569,231.486359 
	C344.232178,221.190521 357.924286,209.835526 372.330109,199.476074 
	C379.322296,194.447861 386.028992,189.067017 392.854645,183.852325 
	C402.195526,176.716049 411.966370,170.178604 421.113922,162.742767 
	C427.605530,157.465836 434.563263,152.639099 441.302002,147.600342 
	C452.060059,139.556183 462.670959,131.315475 473.391357,123.220528 
	C477.035278,120.469055 480.518677,117.167122 485.914093,117.831863 
	C486.093079,119.061295 486.352325,120.016678 486.353333,120.972336 
	C486.369415,136.301575 486.289001,151.631271 486.385773,166.959869 
	C486.411407,171.021027 484.749756,173.792267 481.566772,176.177750 
	C466.984833,187.106262 452.390625,198.021515 437.892273,209.060287 
	C428.026093,216.572235 417.807526,223.763672 407.868591,231.199509 
	C394.476990,241.218430 381.141296,251.349197 367.883423,261.564911 
	C351.078186,274.514069 334.347687,287.585602 317.097992,299.923553 
	C305.620941,308.132599 294.428040,316.677429 283.312592,325.341248 
	C279.469513,328.336731 276.224091,329.165527 271.834015,325.769104 
	C251.750595,310.231140 231.490631,294.918701 211.169998,279.690857 
	C197.120392,269.162384 182.533539,259.321167 168.853714,248.341827 
	C162.400558,243.162552 155.629883,238.411682 149.122375,233.328293 
	C138.194687,224.792007 127.406372,215.958496 115.410957,208.705978 
	C113.654404,210.899002 114.387123,213.146027 114.385780,215.197769 
	C114.340027,284.846130 114.348778,354.494537 114.343750,424.142944 
	C114.343185,432.036011 114.028091,432.344543 106.191803,432.350220 
	C95.694565,432.357819 85.197296,432.363098 74.700073,432.348846 
	C67.679977,432.339294 67.656105,432.323303 67.653610,425.468506 
	C67.638954,385.145630 67.636360,344.822784 67.629105,303.999878 
M236.745255,293.688721 
	C248.070419,301.813141 259.665253,309.575043 270.083740,318.906281 
	C274.427704,322.796967 278.917114,323.484344 282.926819,319.614014 
	C289.585236,313.187012 297.830963,308.990814 304.686829,302.891083 
	C311.891235,296.481262 320.109131,291.343903 327.721130,285.422455 
	C336.071686,278.926453 344.799988,272.841095 353.092560,266.248138 
	C360.642059,260.246002 368.623535,254.821930 376.360138,249.115463 
	C383.831390,243.604706 391.194824,237.878784 398.677521,232.377914 
	C414.964355,220.404724 430.862152,207.894150 447.185516,195.948730 
	C457.644470,188.294876 467.677551,180.058136 478.156830,172.433578 
	C481.358337,170.104202 482.874451,167.666122 482.826996,163.786774 
	C482.688385,152.455170 482.757629,141.121170 482.685944,129.788483 
	C482.674866,128.039383 483.090820,126.053886 481.098480,124.812370 
	C478.957336,124.952721 477.547455,126.493866 475.992493,127.661247 
	C461.374329,138.635788 446.826813,149.704666 432.184052,160.646088 
	C417.937744,171.291245 403.561188,181.762207 389.319580,192.413574 
	C374.278229,203.663071 359.138885,214.795105 344.405487,226.437988 
	C334.489441,234.274033 324.120911,241.486847 314.141571,249.236465 
	C303.916412,257.176941 293.351898,264.716339 283.154114,272.716614 
	C278.040070,276.728638 276.065430,276.624390 270.943848,272.634277 
	C257.043457,261.804901 243.038788,251.107040 228.973236,240.492508 
	C215.958817,230.671188 202.749268,221.108414 189.738556,211.282272 
	C170.784012,196.967163 152.132980,182.240738 132.948349,168.243652 
	C123.417030,161.289597 113.838470,154.324905 104.472687,147.199783 
	C98.037621,142.304260 90.951889,138.167480 85.060661,132.443176 
	C81.580215,129.061325 77.170837,126.635521 73.097092,123.721031 
	C71.417122,126.199516 72.043289,128.422211 72.040718,130.497452 
	C71.974678,183.829529 71.945114,237.161667 71.937225,290.493805 
	C71.930717,334.492767 72.027901,378.491974 71.880455,422.490417 
	C71.863617,427.513458 73.366905,429.246887 78.448097,429.033905 
	C86.932190,428.678345 95.444603,428.882477 103.942337,429.020569 
	C107.844894,429.083984 109.504425,427.925385 109.537178,423.556458 
	C109.645821,409.060638 109.287949,394.574371 109.212372,380.085693 
	C108.948120,329.421631 109.093300,278.755249 109.142487,228.089844 
	C109.149597,220.763245 109.489334,213.437149 109.659195,206.110458 
	C109.703682,204.191528 110.025345,202.446533 111.995331,201.515320 
	C113.507019,200.800751 115.026062,200.786957 116.100502,202.126175 
	C121.417419,208.753281 129.116150,212.464569 135.729874,217.308655 
	C156.647781,232.629486 176.742157,249.047958 198.049759,263.852539 
	C204.153641,268.093506 210.247849,272.570770 215.772751,277.514496 
	C222.221664,283.285004 230.316956,286.823059 236.745255,293.688721 
z"/>
<path fill="#000000" opacity="1.000000" stroke="none" 
	d="
M175.077393,356.948059 
	C168.319717,351.819916 161.906570,346.825409 155.321671,342.068695 
	C152.795273,340.243683 151.514236,338.229187 151.539719,335.031250 
	C151.653885,320.703613 151.594849,306.374634 151.604828,292.046143 
	C151.606705,289.342499 151.680740,286.316406 154.367874,285.065277 
	C157.189133,283.751678 159.297913,286.036438 161.319656,287.815338 
	C171.921738,297.143707 183.779434,304.811646 195.021835,313.293823 
	C214.485474,327.978760 233.552505,343.205200 253.325577,357.455719 
	C260.426300,362.573242 266.445740,369.213776 274.673279,372.887787 
	C277.027710,373.939178 278.486877,374.071228 280.428802,372.613251 
	C290.229706,365.255127 299.971558,357.811737 309.934662,350.678284 
	C318.148621,344.797150 326.109741,338.558105 334.099823,332.418060 
	C343.568451,325.141724 353.402771,318.361206 362.759552,310.920013 
	C375.847504,300.511475 389.652283,291.010040 402.932922,280.836670 
	C420.056091,267.719757 437.354034,254.841766 454.608612,241.902954 
	C462.941681,235.654221 471.821594,230.084229 479.529449,222.986221 
	C480.943909,221.683701 482.761414,220.184631 484.890015,221.089172 
	C487.348389,222.133820 486.314697,224.570557 486.315765,226.427307 
	C486.353607,292.405334 486.347351,358.383392 486.341766,424.361450 
	C486.341095,432.314880 486.302948,432.345123 478.156769,432.351196 
	C467.826874,432.358917 457.496918,432.373230 447.167114,432.346222 
	C440.730865,432.329376 439.661804,431.321655 439.654694,424.750885 
	C439.618317,391.095581 439.651947,357.440186 439.620117,323.784851 
	C439.617035,320.506989 440.034668,317.178162 439.061096,313.609009 
	C435.543060,313.943207 433.123871,316.160339 430.836853,318.031921 
	C419.775330,327.083862 408.135529,335.352234 396.693573,343.893707 
	C383.668152,353.617218 370.963074,363.769562 357.948364,373.507843 
	C343.480591,384.333374 328.719971,394.768188 314.277832,405.627136 
	C303.547302,413.695312 293.289520,422.379456 282.016388,429.742310 
	C278.605713,431.969879 275.690552,431.925629 272.441315,429.898193 
	C267.364319,426.730255 262.999756,422.531830 258.157013,419.212860 
	C250.739258,414.129059 243.750977,408.551422 236.591873,403.164429 
	C219.500778,390.303894 202.354675,377.516479 185.261337,364.658966 
	C181.954208,362.171417 178.004578,360.530762 175.077393,356.948059 
M444.974945,356.500000 
	C445.027405,379.158508 445.150421,401.817322 445.062439,424.475281 
	C445.047821,428.231598 446.163940,429.307312 449.957214,429.163055 
	C458.775177,428.827667 467.618042,428.844025 476.441376,429.076111 
	C481.123627,429.199310 482.881744,427.642822 482.870605,422.781494 
	C482.726807,359.802826 482.748260,296.823761 482.694305,233.844833 
	C482.692810,232.098358 483.270996,230.121658 481.315338,228.588409 
	C477.218903,229.365952 474.932892,233.008423 471.794067,235.282455 
	C457.394989,245.714355 443.105133,256.300537 428.902557,266.999207 
	C410.725159,280.692078 392.730865,294.628174 374.541107,308.304382 
	C359.949371,319.275299 345.056458,329.847595 330.529694,340.902283 
	C314.429108,353.154633 298.385956,365.474152 281.883240,377.188385 
	C278.475037,379.607635 275.749786,379.092102 272.281006,377.215607 
	C266.633118,374.160309 262.336670,369.447296 257.166290,365.906830 
	C248.265793,359.812195 239.845627,353.104706 231.323914,346.536407 
	C223.292786,340.346191 214.904984,334.658447 207.030777,328.222748 
	C196.366669,319.506805 185.018219,311.622589 173.885818,303.487640 
	C168.601517,299.626129 162.992294,296.224457 157.151428,290.694550 
	C156.987076,305.326172 156.344254,318.209045 156.762466,331.143036 
	C156.907181,335.618469 158.439621,338.786652 161.852966,341.276123 
	C174.207794,350.286896 186.160873,359.838989 198.448776,368.915924 
	C207.134399,375.331879 215.547012,382.143097 224.556015,388.157806 
	C231.039459,392.486359 236.906952,397.726471 243.178818,402.385529 
	C253.581619,410.113220 263.421631,418.607269 274.529449,425.383118 
	C276.512787,426.592957 278.188080,426.638733 280.029846,425.294708 
	C289.832611,418.140991 299.718109,411.098572 309.442169,403.839722 
	C317.828857,397.579102 325.970490,390.990692 334.340607,384.707245 
	C347.362244,374.931976 360.663727,365.521057 373.507782,355.520538 
	C383.217377,347.960449 393.283966,340.904297 403.086670,333.484314 
	C413.944611,325.265686 424.737000,316.960480 435.578217,308.719666 
	C437.716980,307.093933 440.107605,305.265930 442.831451,306.675140 
	C445.255310,307.929108 444.642151,310.817352 444.671082,313.035522 
	C444.855743,327.189270 444.889984,341.344940 444.974945,356.500000 
z"/>
</svg>